<mxfile host="app.diagrams.net" agent="Mozilla/5.0 (X11; Ubuntu; Linux x86_64; rv:142.0) Gecko/20100101 Firefox/142.0" version="28.1.0">
  <diagram name="Page-1" id="5OfQK5ZHzJ9iD1R55TXK">
    <mxGraphModel dx="3080" dy="1934" grid="1" gridSize="10" guides="1" tooltips="1" connect="1" arrows="1" fold="1" page="1" pageScale="1" pageWidth="827" pageHeight="1169" math="0" shadow="0">
      <root>
        <mxCell id="0" />
        <mxCell id="1" parent="0" />
        <mxCell id="e6aKUfLswlS-T_i5iN78-11" value="Graphite + Grafana" style="rounded=1;whiteSpace=wrap;html=1;fontSize=20;verticalAlign=top;spacing=10;" parent="1" vertex="1">
          <mxGeometry x="-40" y="-120" width="790" height="530" as="geometry" />
        </mxCell>
        <mxCell id="6HZJg61xOL4YmbAu8Nb1-11" value="Collectd" style="rounded=1;whiteSpace=wrap;html=1;fontSize=16;verticalAlign=top;spacing=5;" parent="1" vertex="1">
          <mxGeometry x="60" y="215" width="340" height="120" as="geometry" />
        </mxCell>
        <mxCell id="6HZJg61xOL4YmbAu8Nb1-14" value="Send data" style="rounded=0;fillColor=#1ba1e2;fontColor=light-dark(#FFFFFF,#FBFBFB);strokeColor=#006EAF;labelBackgroundColor=none;labelBorderColor=none;textShadow=0;whiteSpace=wrap;html=1;" parent="1" vertex="1">
          <mxGeometry x="70.00000000000009" y="255" width="151.68" height="60" as="geometry" />
        </mxCell>
        <mxCell id="6HZJg61xOL4YmbAu8Nb1-18" value="Receive data" style="rounded=0;fillColor=#1ba1e2;fontColor=light-dark(#FFFFFF,#FBFBFB);strokeColor=#006EAF;labelBackgroundColor=none;labelBorderColor=none;textShadow=0;whiteSpace=wrap;html=1;" parent="1" vertex="1">
          <mxGeometry x="240" y="255" width="151.68" height="60" as="geometry" />
        </mxCell>
        <mxCell id="e6aKUfLswlS-T_i5iN78-41" value="Zabbix" style="rounded=1;whiteSpace=wrap;html=1;verticalAlign=top;fontSize=20;spacing=10;" parent="1" vertex="1">
          <mxGeometry x="820" y="-120" width="790" height="530" as="geometry" />
        </mxCell>
        <mxCell id="e6aKUfLswlS-T_i5iN78-44" value="&lt;div&gt;Zabbix&amp;nbsp;&lt;/div&gt;&lt;div&gt;Web-Interface&lt;/div&gt;" style="rounded=1;whiteSpace=wrap;html=1;fontSize=15;verticalAlign=top;spacing=5;" parent="1" vertex="1">
          <mxGeometry x="1370" y="150" width="170" height="210" as="geometry" />
        </mxCell>
        <mxCell id="e6aKUfLswlS-T_i5iN78-47" value="Visualisation/Dashboard" style="rounded=0;fillColor=#1ba1e2;fontColor=light-dark(#FFFFFF,#FBFBFB);strokeColor=#006EAF;labelBackgroundColor=none;labelBorderColor=none;textShadow=0;whiteSpace=wrap;html=1;" parent="1" vertex="1">
          <mxGeometry x="1379.1599999999999" y="210" width="151.68" height="60" as="geometry" />
        </mxCell>
        <mxCell id="e6aKUfLswlS-T_i5iN78-149" value="Graphs" style="rounded=0;fillColor=#1ba1e2;fontColor=light-dark(#FFFFFF,#FBFBFB);strokeColor=#006EAF;labelBackgroundColor=none;labelBorderColor=none;textShadow=0;whiteSpace=wrap;html=1;" parent="1" vertex="1">
          <mxGeometry x="1379.29" y="280" width="151.68" height="60" as="geometry" />
        </mxCell>
        <mxCell id="6HZJg61xOL4YmbAu8Nb1-27" style="edgeStyle=none;curved=1;rounded=0;orthogonalLoop=1;jettySize=auto;html=1;exitX=0;exitY=0.5;exitDx=0;exitDy=0;fontSize=12;startSize=8;endSize=8;" parent="1" source="e6aKUfLswlS-T_i5iN78-86" edge="1">
          <mxGeometry relative="1" as="geometry">
            <mxPoint x="1060" y="289.8571428571431" as="targetPoint" />
          </mxGeometry>
        </mxCell>
        <mxCell id="e6aKUfLswlS-T_i5iN78-86" value="zabbix-sender.sh" style="rounded=1;whiteSpace=wrap;html=1;dashed=1;fontSize=16;verticalAlign=top;spacing=5;" parent="1" vertex="1">
          <mxGeometry x="1080" y="200" width="210" height="180" as="geometry" />
        </mxCell>
        <mxCell id="6HZJg61xOL4YmbAu8Nb1-28" value="zabbix-sender" style="rounded=1;whiteSpace=wrap;html=1;fontSize=16;verticalAlign=top;spacing=5;" parent="1" vertex="1">
          <mxGeometry x="1090" y="240" width="190" height="120" as="geometry" />
        </mxCell>
        <mxCell id="e6aKUfLswlS-T_i5iN78-87" value="Send data" style="rounded=0;fillColor=#1ba1e2;fontColor=light-dark(#FFFFFF,#FBFBFB);strokeColor=#006EAF;labelBackgroundColor=none;labelBorderColor=none;textShadow=0;whiteSpace=wrap;html=1;" parent="1" vertex="1">
          <mxGeometry x="1109.16" y="280" width="151.68" height="60" as="geometry" />
        </mxCell>
        <mxCell id="6HZJg61xOL4YmbAu8Nb1-41" value="Collectd" style="rounded=1;whiteSpace=wrap;html=1;verticalAlign=top;fontSize=16;spacing=0;spacingTop=5;" parent="1" vertex="1">
          <mxGeometry x="870" y="230" width="190" height="120" as="geometry" />
        </mxCell>
        <mxCell id="6HZJg61xOL4YmbAu8Nb1-42" value="Receive data" style="rounded=0;fillColor=#1ba1e2;fontColor=light-dark(#FFFFFF,#FBFBFB);strokeColor=#006EAF;labelBackgroundColor=none;labelBorderColor=none;textShadow=0;whiteSpace=wrap;html=1;" parent="1" vertex="1">
          <mxGeometry x="889.1600000000001" y="270" width="151.68" height="60" as="geometry" />
        </mxCell>
        <mxCell id="e6aKUfLswlS-T_i5iN78-119" value="Nagios" style="rounded=1;whiteSpace=wrap;html=1;verticalAlign=top;fontSize=20;spacingTop=0;spacing=10;" parent="1" vertex="1">
          <mxGeometry x="1680" y="-120" width="790" height="530" as="geometry" />
        </mxCell>
        <mxCell id="e6aKUfLswlS-T_i5iN78-67" style="edgeStyle=none;curved=1;rounded=0;orthogonalLoop=1;jettySize=auto;html=1;exitX=1;exitY=0.5;exitDx=0;exitDy=0;fontSize=12;startSize=8;endSize=8;entryX=-0.01;entryY=0.703;entryDx=0;entryDy=0;entryPerimeter=0;" parent="1" source="e6aKUfLswlS-T_i5iN78-55" target="e6aKUfLswlS-T_i5iN78-58" edge="1">
          <mxGeometry relative="1" as="geometry">
            <mxPoint x="1370" y="40" as="targetPoint" />
          </mxGeometry>
        </mxCell>
        <mxCell id="e6aKUfLswlS-T_i5iN78-72" style="edgeStyle=none;curved=1;rounded=0;orthogonalLoop=1;jettySize=auto;html=1;entryX=1;entryY=0.25;entryDx=0;entryDy=0;fontSize=12;startSize=8;endSize=8;exitX=0;exitY=0.25;exitDx=0;exitDy=0;" parent="1" source="e6aKUfLswlS-T_i5iN78-58" target="e6aKUfLswlS-T_i5iN78-55" edge="1">
          <mxGeometry relative="1" as="geometry" />
        </mxCell>
        <mxCell id="e6aKUfLswlS-T_i5iN78-78" style="edgeStyle=none;curved=1;rounded=0;orthogonalLoop=1;jettySize=auto;html=1;exitX=0.25;exitY=1;exitDx=0;exitDy=0;entryX=0.25;entryY=0;entryDx=0;entryDy=0;fontSize=12;startSize=8;endSize=8;" parent="1" source="e6aKUfLswlS-T_i5iN78-58" target="e6aKUfLswlS-T_i5iN78-44" edge="1">
          <mxGeometry relative="1" as="geometry" />
        </mxCell>
        <mxCell id="e6aKUfLswlS-T_i5iN78-79" style="edgeStyle=none;curved=1;rounded=0;orthogonalLoop=1;jettySize=auto;html=1;exitX=0.75;exitY=0;exitDx=0;exitDy=0;entryX=0.75;entryY=1;entryDx=0;entryDy=0;fontSize=12;startSize=8;endSize=8;" parent="1" source="e6aKUfLswlS-T_i5iN78-44" target="e6aKUfLswlS-T_i5iN78-58" edge="1">
          <mxGeometry relative="1" as="geometry" />
        </mxCell>
        <mxCell id="e6aKUfLswlS-T_i5iN78-38" style="edgeStyle=none;curved=1;rounded=0;orthogonalLoop=1;jettySize=auto;html=1;exitX=1;exitY=0.5;exitDx=0;exitDy=0;entryX=0;entryY=0.25;entryDx=0;entryDy=0;fontSize=12;startSize=8;endSize=8;" parent="1" source="e6aKUfLswlS-T_i5iN78-1" target="e6aKUfLswlS-T_i5iN78-20" edge="1">
          <mxGeometry relative="1" as="geometry" />
        </mxCell>
        <mxCell id="6HZJg61xOL4YmbAu8Nb1-20" style="edgeStyle=none;curved=1;rounded=0;orthogonalLoop=1;jettySize=auto;html=1;entryX=0.5;entryY=1;entryDx=0;entryDy=0;fontSize=12;startSize=8;endSize=8;exitX=0.5;exitY=0;exitDx=0;exitDy=0;" parent="1" source="6HZJg61xOL4YmbAu8Nb1-43" target="6HZJg61xOL4YmbAu8Nb1-11" edge="1">
          <mxGeometry relative="1" as="geometry">
            <mxPoint x="230" y="455" as="sourcePoint" />
          </mxGeometry>
        </mxCell>
        <mxCell id="e6aKUfLswlS-T_i5iN78-1" value="Graphite" style="rounded=1;whiteSpace=wrap;html=1;movable=1;resizable=1;rotatable=1;deletable=1;editable=1;locked=0;connectable=1;verticalAlign=top;fontSize=16;spacing=5;" parent="1" vertex="1">
          <mxGeometry x="40" y="-15" width="380" height="180" as="geometry" />
        </mxCell>
        <mxCell id="e6aKUfLswlS-T_i5iN78-73" style="edgeStyle=none;curved=1;rounded=0;orthogonalLoop=1;jettySize=auto;html=1;exitX=0;exitY=0.25;exitDx=0;exitDy=0;entryX=1;entryY=0.25;entryDx=0;entryDy=0;fontSize=12;startSize=8;endSize=8;" parent="1" source="e6aKUfLswlS-T_i5iN78-27" target="e6aKUfLswlS-T_i5iN78-17" edge="1">
          <mxGeometry relative="1" as="geometry" />
        </mxCell>
        <mxCell id="e6aKUfLswlS-T_i5iN78-74" style="edgeStyle=none;curved=1;rounded=0;orthogonalLoop=1;jettySize=auto;html=1;exitX=1;exitY=0.75;exitDx=0;exitDy=0;entryX=0;entryY=0.75;entryDx=0;entryDy=0;fontSize=12;startSize=8;endSize=8;" parent="1" source="e6aKUfLswlS-T_i5iN78-17" target="e6aKUfLswlS-T_i5iN78-27" edge="1">
          <mxGeometry relative="1" as="geometry" />
        </mxCell>
        <mxCell id="e6aKUfLswlS-T_i5iN78-20" value="Grafana" style="rounded=1;whiteSpace=wrap;html=1;verticalAlign=top;fontSize=16;spacing=5;" parent="1" vertex="1">
          <mxGeometry x="490" y="-15" width="170" height="370" as="geometry" />
        </mxCell>
        <mxCell id="e6aKUfLswlS-T_i5iN78-22" value="&lt;div&gt;Alerting&lt;/div&gt;" style="rounded=0;fillColor=#1ba1e2;fontColor=light-dark(#FFFFFF,#FBFBFB);strokeColor=#006EAF;labelBackgroundColor=none;labelBorderColor=none;textShadow=0;whiteSpace=wrap;html=1;" parent="1" vertex="1">
          <mxGeometry x="496.64" y="195" width="153.36" height="60" as="geometry" />
        </mxCell>
        <mxCell id="e6aKUfLswlS-T_i5iN78-25" value="Visualisation/Dashboard" style="rounded=0;fillColor=#1ba1e2;fontColor=light-dark(#FFFFFF,#FBFBFB);strokeColor=#006EAF;labelBackgroundColor=none;labelBorderColor=none;textShadow=0;whiteSpace=wrap;html=1;" parent="1" vertex="1">
          <mxGeometry x="498.32" y="35" width="151.68" height="60" as="geometry" />
        </mxCell>
        <mxCell id="e6aKUfLswlS-T_i5iN78-30" value="Users Management" style="rounded=0;fillColor=#1ba1e2;fontColor=light-dark(#FFFFFF,#FBFBFB);strokeColor=#006EAF;labelBackgroundColor=none;labelBorderColor=none;textShadow=0;whiteSpace=wrap;html=1;" parent="1" vertex="1">
          <mxGeometry x="496.64000000000004" y="275" width="153.36" height="60" as="geometry" />
        </mxCell>
        <mxCell id="e6aKUfLswlS-T_i5iN78-55" value="Zabbix-serveur" style="rounded=1;whiteSpace=wrap;html=1;movable=1;resizable=1;rotatable=1;deletable=1;editable=1;locked=0;connectable=1;verticalAlign=top;fontSize=16;spacing=5;" parent="1" vertex="1">
          <mxGeometry x="900" y="-30" width="380" height="200" as="geometry" />
        </mxCell>
        <mxCell id="e6aKUfLswlS-T_i5iN78-64" value="&lt;div&gt;Metrics management&lt;/div&gt;" style="rounded=0;fillColor=#1ba1e2;fontColor=light-dark(#FFFFFF,#FBFBFB);strokeColor=#006EAF;labelBackgroundColor=none;labelBorderColor=none;textShadow=0;whiteSpace=wrap;html=1;" parent="1" vertex="1">
          <mxGeometry x="919.9966666666667" y="17.83" width="150" height="60" as="geometry" />
        </mxCell>
        <mxCell id="e6aKUfLswlS-T_i5iN78-46" value="&lt;div&gt;Alerting&lt;/div&gt;" style="rounded=0;fillColor=#1ba1e2;fontColor=light-dark(#FFFFFF,#FBFBFB);strokeColor=#006EAF;labelBackgroundColor=none;labelBorderColor=none;textShadow=0;whiteSpace=wrap;html=1;" parent="1" vertex="1">
          <mxGeometry x="1100" y="17.83" width="153.36" height="60" as="geometry" />
        </mxCell>
        <mxCell id="e6aKUfLswlS-T_i5iN78-48" value="Users Management" style="rounded=0;fillColor=#1ba1e2;fontColor=light-dark(#FFFFFF,#FBFBFB);strokeColor=#006EAF;labelBackgroundColor=none;labelBorderColor=none;textShadow=0;whiteSpace=wrap;html=1;" parent="1" vertex="1">
          <mxGeometry x="1010" y="90" width="153.36" height="60" as="geometry" />
        </mxCell>
        <mxCell id="e6aKUfLswlS-T_i5iN78-121" style="edgeStyle=none;curved=1;rounded=0;orthogonalLoop=1;jettySize=auto;html=1;exitX=1;exitY=0.5;exitDx=0;exitDy=0;fontSize=12;startSize=8;endSize=8;entryX=0;entryY=0.5;entryDx=0;entryDy=0;" parent="1" source="e6aKUfLswlS-T_i5iN78-143" target="e6aKUfLswlS-T_i5iN78-128" edge="1">
          <mxGeometry relative="1" as="geometry">
            <mxPoint x="2220.84" y="32.83" as="targetPoint" />
          </mxGeometry>
        </mxCell>
        <mxCell id="e6aKUfLswlS-T_i5iN78-122" style="edgeStyle=none;curved=1;rounded=0;orthogonalLoop=1;jettySize=auto;html=1;entryX=1;entryY=0.25;entryDx=0;entryDy=0;fontSize=12;startSize=8;endSize=8;exitX=0;exitY=0.25;exitDx=0;exitDy=0;" parent="1" source="e6aKUfLswlS-T_i5iN78-128" target="e6aKUfLswlS-T_i5iN78-143" edge="1">
          <mxGeometry relative="1" as="geometry" />
        </mxCell>
        <mxCell id="e6aKUfLswlS-T_i5iN78-143" value="Nagios-Core" style="rounded=1;whiteSpace=wrap;html=1;movable=1;resizable=1;rotatable=1;deletable=1;editable=1;locked=0;connectable=1;fontSize=16;spacingTop=0;verticalAlign=top;spacing=5;" parent="1" vertex="1">
          <mxGeometry x="1750.84" y="-37.17" width="380" height="200" as="geometry" />
        </mxCell>
        <mxCell id="e6aKUfLswlS-T_i5iN78-145" value="&lt;div&gt;Metrics management&lt;/div&gt;" style="rounded=0;fillColor=#1ba1e2;fontColor=light-dark(#FFFFFF,#FBFBFB);strokeColor=#006EAF;labelBackgroundColor=none;labelBorderColor=none;textShadow=0;whiteSpace=wrap;html=1;" parent="1" vertex="1">
          <mxGeometry x="1770.8366666666668" y="10.659999999999982" width="150" height="60" as="geometry" />
        </mxCell>
        <mxCell id="e6aKUfLswlS-T_i5iN78-146" value="&lt;div&gt;Alerting&lt;/div&gt;" style="rounded=0;fillColor=#1ba1e2;fontColor=light-dark(#FFFFFF,#FBFBFB);strokeColor=#006EAF;labelBackgroundColor=none;labelBorderColor=none;textShadow=0;whiteSpace=wrap;html=1;" parent="1" vertex="1">
          <mxGeometry x="1950.84" y="10.659999999999982" width="153.36" height="60" as="geometry" />
        </mxCell>
        <mxCell id="e6aKUfLswlS-T_i5iN78-147" value="Users Management" style="rounded=0;fillColor=#1ba1e2;fontColor=light-dark(#FFFFFF,#FBFBFB);strokeColor=#006EAF;labelBackgroundColor=none;labelBorderColor=none;textShadow=0;whiteSpace=wrap;html=1;" parent="1" vertex="1">
          <mxGeometry x="1770.84" y="82.83" width="150" height="60" as="geometry" />
        </mxCell>
        <mxCell id="e6aKUfLswlS-T_i5iN78-148" value="Graphs" style="rounded=0;fillColor=#1ba1e2;fontColor=light-dark(#FFFFFF,#FBFBFB);strokeColor=#006EAF;labelBackgroundColor=none;labelBorderColor=none;textShadow=0;whiteSpace=wrap;html=1;" parent="1" vertex="1">
          <mxGeometry x="499.15999999999997" y="115" width="151.68" height="60" as="geometry" />
        </mxCell>
        <mxCell id="e6aKUfLswlS-T_i5iN78-157" value="Visualisation/Dashboard" style="rounded=0;fillColor=#1ba1e2;fontColor=light-dark(#FFFFFF,#FBFBFB);strokeColor=#006EAF;labelBackgroundColor=none;labelBorderColor=none;textShadow=0;whiteSpace=wrap;html=1;" parent="1" vertex="1">
          <mxGeometry x="1950.84" y="82.83" width="151.68" height="60" as="geometry" />
        </mxCell>
        <mxCell id="6HZJg61xOL4YmbAu8Nb1-6" style="edgeStyle=none;curved=1;rounded=0;orthogonalLoop=1;jettySize=auto;html=1;exitX=0.5;exitY=0;exitDx=0;exitDy=0;entryX=0.5;entryY=1;entryDx=0;entryDy=0;fontSize=12;startSize=8;endSize=8;" parent="1" source="6HZJg61xOL4YmbAu8Nb1-3" target="e6aKUfLswlS-T_i5iN78-134" edge="1">
          <mxGeometry relative="1" as="geometry" />
        </mxCell>
        <mxCell id="6HZJg61xOL4YmbAu8Nb1-17" style="edgeStyle=none;curved=1;rounded=0;orthogonalLoop=1;jettySize=auto;html=1;exitX=0.5;exitY=0;exitDx=0;exitDy=0;entryX=0.5;entryY=1;entryDx=0;entryDy=0;fontSize=12;startSize=8;endSize=8;" parent="1" source="6HZJg61xOL4YmbAu8Nb1-11" target="e6aKUfLswlS-T_i5iN78-1" edge="1">
          <mxGeometry relative="1" as="geometry" />
        </mxCell>
        <mxCell id="6HZJg61xOL4YmbAu8Nb1-3" value="Collectd" style="rounded=1;whiteSpace=wrap;html=1;container=0;verticalAlign=top;fontSize=16;spacingTop=0;spacing=5;" parent="1" vertex="1">
          <mxGeometry x="1740.84" y="460" width="190" height="120" as="geometry" />
        </mxCell>
        <mxCell id="6HZJg61xOL4YmbAu8Nb1-4" value="Collect data" style="rounded=0;fillColor=#1ba1e2;fontColor=light-dark(#FFFFFF,#FBFBFB);strokeColor=#006EAF;labelBackgroundColor=none;labelBorderColor=none;textShadow=0;whiteSpace=wrap;html=1;container=0;" parent="1" vertex="1">
          <mxGeometry x="1760" y="500" width="151.68" height="60" as="geometry" />
        </mxCell>
        <mxCell id="6HZJg61xOL4YmbAu8Nb1-33" style="edgeStyle=none;curved=1;rounded=0;orthogonalLoop=1;jettySize=auto;html=1;exitX=0.5;exitY=0;exitDx=0;exitDy=0;entryX=0.75;entryY=1;entryDx=0;entryDy=0;fontSize=12;startSize=8;endSize=8;" parent="1" source="6HZJg61xOL4YmbAu8Nb1-28" target="e6aKUfLswlS-T_i5iN78-55" edge="1">
          <mxGeometry relative="1" as="geometry" />
        </mxCell>
        <UserObject label="&lt;div&gt;Custom-Nagios-Plugin.sh&lt;/div&gt;" tooltip="" id="6HZJg61xOL4YmbAu8Nb1-37">
          <mxCell style="rounded=1;whiteSpace=wrap;html=1;dashed=1;labelPosition=center;verticalLabelPosition=middle;align=center;verticalAlign=top;spacingTop=0;fontSize=16;spacing=5;" parent="1" vertex="1">
            <mxGeometry x="1960.84" y="190" width="209.16" height="180" as="geometry" />
          </mxCell>
        </UserObject>
        <mxCell id="e6aKUfLswlS-T_i5iN78-128" value="Nagiosgraph" style="rounded=1;whiteSpace=wrap;html=1;verticalAlign=top;fontSize=16;spacingTop=0;spacing=5;" parent="1" vertex="1">
          <mxGeometry x="2209.1600000000003" y="-47.17" width="200" height="240" as="geometry" />
        </mxCell>
        <mxCell id="e6aKUfLswlS-T_i5iN78-152" value="&lt;font&gt;RRDTool&lt;/font&gt;" style="rounded=1;whiteSpace=wrap;html=1;verticalAlign=top;spacing=5;fontSize=16;" parent="1" vertex="1">
          <mxGeometry x="2220.84" y="-7.170000000000002" width="180" height="190" as="geometry" />
        </mxCell>
        <mxCell id="e6aKUfLswlS-T_i5iN78-154" value="&lt;div&gt;&lt;span style=&quot;color: light-dark(rgb(0, 0, 0), rgb(255, 255, 255));&quot;&gt;Storage Time-Series&lt;/span&gt;&lt;/div&gt;" style="rounded=0;fillColor=#1ba1e2;fontColor=light-dark(#FFFFFF,#FBFBFB);strokeColor=#006EAF;labelBackgroundColor=none;labelBorderColor=none;textShadow=0;whiteSpace=wrap;html=1;" parent="1" vertex="1">
          <mxGeometry x="2234.16" y="32.83" width="150" height="60" as="geometry" />
        </mxCell>
        <mxCell id="e6aKUfLswlS-T_i5iN78-155" value="Graphs" style="rounded=0;fillColor=#1ba1e2;fontColor=light-dark(#FFFFFF,#FBFBFB);strokeColor=#006EAF;labelBackgroundColor=none;labelBorderColor=none;textShadow=0;whiteSpace=wrap;html=1;" parent="1" vertex="1">
          <mxGeometry x="2233.3200000000006" y="102.83" width="151.68" height="60" as="geometry" />
        </mxCell>
        <mxCell id="e6aKUfLswlS-T_i5iN78-134" value="Collectd" style="rounded=1;whiteSpace=wrap;html=1;verticalAlign=top;fontSize=16;spacing=5;spacingTop=0;" parent="1" vertex="1">
          <mxGeometry x="1740.84" y="240" width="190" height="120" as="geometry" />
        </mxCell>
        <mxCell id="e6aKUfLswlS-T_i5iN78-135" value="Receive data" style="rounded=0;fillColor=#1ba1e2;fontColor=light-dark(#FFFFFF,#FBFBFB);strokeColor=#006EAF;labelBackgroundColor=none;labelBorderColor=none;textShadow=0;whiteSpace=wrap;html=1;" parent="1" vertex="1">
          <mxGeometry x="1760" y="280" width="151.68" height="60" as="geometry" />
        </mxCell>
        <mxCell id="e6aKUfLswlS-T_i5iN78-138" value="Collectd-nagios" style="rounded=1;whiteSpace=wrap;html=1;verticalAlign=top;fontSize=16;spacingTop=0;spacing=5;" parent="1" vertex="1">
          <mxGeometry x="1971.55" y="240" width="190" height="120" as="geometry" />
        </mxCell>
        <mxCell id="e6aKUfLswlS-T_i5iN78-139" value="Send data" style="rounded=0;fillColor=#1ba1e2;fontColor=light-dark(#FFFFFF,#FBFBFB);strokeColor=#006EAF;labelBackgroundColor=none;labelBorderColor=none;textShadow=0;whiteSpace=wrap;html=1;" parent="1" vertex="1">
          <mxGeometry x="1990" y="280" width="151.68" height="60" as="geometry" />
        </mxCell>
        <mxCell id="6HZJg61xOL4YmbAu8Nb1-40" style="edgeStyle=none;curved=1;rounded=0;orthogonalLoop=1;jettySize=auto;html=1;exitX=0.5;exitY=0;exitDx=0;exitDy=0;fontSize=12;startSize=8;endSize=8;entryX=0.5;entryY=1;entryDx=0;entryDy=0;" parent="1" source="6HZJg61xOL4YmbAu8Nb1-38" target="6HZJg61xOL4YmbAu8Nb1-41" edge="1">
          <mxGeometry relative="1" as="geometry">
            <mxPoint x="964.600625" y="360" as="targetPoint" />
          </mxGeometry>
        </mxCell>
        <mxCell id="6HZJg61xOL4YmbAu8Nb1-38" value="Collectd" style="rounded=1;whiteSpace=wrap;html=1;container=0;verticalAlign=top;fontSize=16;spacingTop=5;spacing=0;" parent="1" vertex="1">
          <mxGeometry x="870" y="450" width="190" height="120" as="geometry" />
        </mxCell>
        <mxCell id="6HZJg61xOL4YmbAu8Nb1-39" value="Collect data" style="rounded=0;fillColor=#1ba1e2;fontColor=light-dark(#FFFFFF,#FBFBFB);strokeColor=#006EAF;labelBackgroundColor=none;labelBorderColor=none;textShadow=0;whiteSpace=wrap;html=1;container=0;" parent="1" vertex="1">
          <mxGeometry x="889.1600000000001" y="490" width="151.68" height="60" as="geometry" />
        </mxCell>
        <mxCell id="e6aKUfLswlS-T_i5iN78-58" value="&lt;div&gt;Mysql/Postgresql&lt;/div&gt;" style="rounded=1;whiteSpace=wrap;html=1;verticalAlign=top;fontSize=16;spacing=5;" parent="1" vertex="1">
          <mxGeometry x="1369.29" y="-10" width="170" height="112.83" as="geometry" />
        </mxCell>
        <mxCell id="e6aKUfLswlS-T_i5iN78-60" value="&lt;div&gt;&lt;span style=&quot;color: light-dark(rgb(0, 0, 0), rgb(255, 255, 255));&quot;&gt;Storage Time-Series&lt;/span&gt;&lt;/div&gt;" style="rounded=0;fillColor=#1ba1e2;fontColor=light-dark(#FFFFFF,#FBFBFB);strokeColor=#006EAF;labelBackgroundColor=none;labelBorderColor=none;textShadow=0;whiteSpace=wrap;html=1;" parent="1" vertex="1">
          <mxGeometry x="1379.29" y="32.83" width="150" height="60" as="geometry" />
        </mxCell>
        <mxCell id="6HZJg61xOL4YmbAu8Nb1-43" value="Collectd" style="rounded=1;whiteSpace=wrap;html=1;container=0;verticalAlign=top;fontSize=16;spacingTop=5;spacing=0;" parent="1" vertex="1">
          <mxGeometry x="135" y="465" width="190" height="120" as="geometry" />
        </mxCell>
        <mxCell id="6HZJg61xOL4YmbAu8Nb1-44" value="Collect data" style="rounded=0;fillColor=#1ba1e2;fontColor=light-dark(#FFFFFF,#FBFBFB);strokeColor=#006EAF;labelBackgroundColor=none;labelBorderColor=none;textShadow=0;whiteSpace=wrap;html=1;container=0;" parent="1" vertex="1">
          <mxGeometry x="154.16000000000008" y="505" width="151.68" height="60" as="geometry" />
        </mxCell>
        <mxCell id="e6aKUfLswlS-T_i5iN78-27" value="Carbon" style="rounded=1;whiteSpace=wrap;html=1;verticalAlign=top;fontSize=16;spacing=5;" parent="1" vertex="1">
          <mxGeometry x="237.32" y="32.83" width="165.35333333333332" height="120" as="geometry" />
        </mxCell>
        <mxCell id="e6aKUfLswlS-T_i5iN78-29" value="&lt;div&gt;Metrics management&lt;/div&gt;" style="rounded=0;fillColor=#1ba1e2;fontColor=light-dark(#FFFFFF,#FBFBFB);strokeColor=#006EAF;labelBackgroundColor=none;labelBorderColor=none;textShadow=0;whiteSpace=wrap;html=1;" parent="1" vertex="1">
          <mxGeometry x="244.99666666666667" y="72.83" width="150" height="60" as="geometry" />
        </mxCell>
        <mxCell id="e6aKUfLswlS-T_i5iN78-17" value="&lt;div&gt;Whisper&lt;/div&gt;" style="rounded=1;whiteSpace=wrap;html=1;verticalAlign=top;fontSize=16;spacing=5;" parent="1" vertex="1">
          <mxGeometry x="57.32333333333333" y="32.83" width="165.35333333333332" height="120" as="geometry" />
        </mxCell>
        <mxCell id="e6aKUfLswlS-T_i5iN78-24" value="&lt;div&gt;&lt;span style=&quot;color: light-dark(rgb(0, 0, 0), rgb(255, 255, 255));&quot;&gt;Storage Time-Series&lt;/span&gt;&lt;/div&gt;" style="rounded=0;fillColor=#1ba1e2;fontColor=light-dark(#FFFFFF,#FBFBFB);strokeColor=#006EAF;labelBackgroundColor=none;labelBorderColor=none;textShadow=0;whiteSpace=wrap;html=1;" parent="1" vertex="1">
          <mxGeometry x="65.00000000000003" y="72.83" width="150" height="60" as="geometry" />
        </mxCell>
        <mxCell id="6HZJg61xOL4YmbAu8Nb1-45" style="edgeStyle=none;curved=1;rounded=0;orthogonalLoop=1;jettySize=auto;html=1;exitX=0.75;exitY=1;exitDx=0;exitDy=0;entryX=0.36;entryY=0.013;entryDx=0;entryDy=0;entryPerimeter=0;fontSize=12;startSize=8;endSize=8;" parent="1" source="e6aKUfLswlS-T_i5iN78-143" target="6HZJg61xOL4YmbAu8Nb1-37" edge="1">
          <mxGeometry relative="1" as="geometry" />
        </mxCell>
        <mxCell id="6HZJg61xOL4YmbAu8Nb1-8" style="edgeStyle=none;curved=1;rounded=0;orthogonalLoop=1;jettySize=auto;html=1;exitX=0;exitY=0.5;exitDx=0;exitDy=0;entryX=1;entryY=0.5;entryDx=0;entryDy=0;fontSize=12;startSize=8;endSize=8;exitPerimeter=0;" parent="1" source="e6aKUfLswlS-T_i5iN78-138" target="e6aKUfLswlS-T_i5iN78-134" edge="1">
          <mxGeometry relative="1" as="geometry" />
        </mxCell>
        <mxCell id="EPGn0Xgv2JU4Mc5Kp3ha-1" value="Influxdb + Grafana" style="rounded=1;whiteSpace=wrap;html=1;fontSize=20;verticalAlign=top;spacing=10;" parent="1" vertex="1">
          <mxGeometry x="-890" y="-120" width="790" height="530" as="geometry" />
        </mxCell>
        <mxCell id="EPGn0Xgv2JU4Mc5Kp3ha-2" value="Collectd" style="rounded=1;whiteSpace=wrap;html=1;fontSize=16;verticalAlign=top;spacing=5;" parent="1" vertex="1">
          <mxGeometry x="-790" y="215" width="340" height="120" as="geometry" />
        </mxCell>
        <mxCell id="EPGn0Xgv2JU4Mc5Kp3ha-3" value="Send data" style="rounded=0;fillColor=#1ba1e2;fontColor=light-dark(#FFFFFF,#FBFBFB);strokeColor=#006EAF;labelBackgroundColor=none;labelBorderColor=none;textShadow=0;whiteSpace=wrap;html=1;" parent="1" vertex="1">
          <mxGeometry x="-779.9999999999999" y="255" width="151.68" height="60" as="geometry" />
        </mxCell>
        <mxCell id="EPGn0Xgv2JU4Mc5Kp3ha-4" value="Receive data" style="rounded=0;fillColor=#1ba1e2;fontColor=light-dark(#FFFFFF,#FBFBFB);strokeColor=#006EAF;labelBackgroundColor=none;labelBorderColor=none;textShadow=0;whiteSpace=wrap;html=1;" parent="1" vertex="1">
          <mxGeometry x="-610" y="255" width="151.68" height="60" as="geometry" />
        </mxCell>
        <mxCell id="EPGn0Xgv2JU4Mc5Kp3ha-5" style="edgeStyle=none;curved=1;rounded=0;orthogonalLoop=1;jettySize=auto;html=1;exitX=1;exitY=0.5;exitDx=0;exitDy=0;entryX=0;entryY=0.25;entryDx=0;entryDy=0;fontSize=12;startSize=8;endSize=8;" parent="1" source="EPGn0Xgv2JU4Mc5Kp3ha-7" target="EPGn0Xgv2JU4Mc5Kp3ha-10" edge="1">
          <mxGeometry relative="1" as="geometry" />
        </mxCell>
        <mxCell id="EPGn0Xgv2JU4Mc5Kp3ha-6" style="edgeStyle=none;curved=1;rounded=0;orthogonalLoop=1;jettySize=auto;html=1;entryX=0.5;entryY=1;entryDx=0;entryDy=0;fontSize=12;startSize=8;endSize=8;exitX=0.5;exitY=0;exitDx=0;exitDy=0;" parent="1" source="EPGn0Xgv2JU4Mc5Kp3ha-16" target="EPGn0Xgv2JU4Mc5Kp3ha-2" edge="1">
          <mxGeometry relative="1" as="geometry">
            <mxPoint x="-620" y="455" as="sourcePoint" />
          </mxGeometry>
        </mxCell>
        <mxCell id="EPGn0Xgv2JU4Mc5Kp3ha-7" value="InfluxdbV1" style="rounded=1;whiteSpace=wrap;html=1;movable=1;resizable=1;rotatable=1;deletable=1;editable=1;locked=0;connectable=1;verticalAlign=top;fontSize=16;spacing=5;" parent="1" vertex="1">
          <mxGeometry x="-810" y="-15" width="380" height="180" as="geometry" />
        </mxCell>
        <mxCell id="EPGn0Xgv2JU4Mc5Kp3ha-10" value="Grafana" style="rounded=1;whiteSpace=wrap;html=1;verticalAlign=top;fontSize=16;spacing=5;" parent="1" vertex="1">
          <mxGeometry x="-360" y="-15" width="170" height="370" as="geometry" />
        </mxCell>
        <mxCell id="EPGn0Xgv2JU4Mc5Kp3ha-11" value="&lt;div&gt;Alerting&lt;/div&gt;" style="rounded=0;fillColor=#1ba1e2;fontColor=light-dark(#FFFFFF,#FBFBFB);strokeColor=#006EAF;labelBackgroundColor=none;labelBorderColor=none;textShadow=0;whiteSpace=wrap;html=1;" parent="1" vertex="1">
          <mxGeometry x="-353.36" y="195" width="153.36" height="60" as="geometry" />
        </mxCell>
        <mxCell id="EPGn0Xgv2JU4Mc5Kp3ha-12" value="Visualisation/Dashboard" style="rounded=0;fillColor=#1ba1e2;fontColor=light-dark(#FFFFFF,#FBFBFB);strokeColor=#006EAF;labelBackgroundColor=none;labelBorderColor=none;textShadow=0;whiteSpace=wrap;html=1;" parent="1" vertex="1">
          <mxGeometry x="-351.68" y="35" width="151.68" height="60" as="geometry" />
        </mxCell>
        <mxCell id="EPGn0Xgv2JU4Mc5Kp3ha-13" value="Users Management" style="rounded=0;fillColor=#1ba1e2;fontColor=light-dark(#FFFFFF,#FBFBFB);strokeColor=#006EAF;labelBackgroundColor=none;labelBorderColor=none;textShadow=0;whiteSpace=wrap;html=1;" parent="1" vertex="1">
          <mxGeometry x="-353.35999999999996" y="275" width="153.36" height="60" as="geometry" />
        </mxCell>
        <mxCell id="EPGn0Xgv2JU4Mc5Kp3ha-14" value="Graphs" style="rounded=0;fillColor=#1ba1e2;fontColor=light-dark(#FFFFFF,#FBFBFB);strokeColor=#006EAF;labelBackgroundColor=none;labelBorderColor=none;textShadow=0;whiteSpace=wrap;html=1;" parent="1" vertex="1">
          <mxGeometry x="-350.84000000000003" y="115" width="151.68" height="60" as="geometry" />
        </mxCell>
        <mxCell id="EPGn0Xgv2JU4Mc5Kp3ha-15" style="edgeStyle=none;curved=1;rounded=0;orthogonalLoop=1;jettySize=auto;html=1;exitX=0.5;exitY=0;exitDx=0;exitDy=0;entryX=0.5;entryY=1;entryDx=0;entryDy=0;fontSize=12;startSize=8;endSize=8;" parent="1" source="EPGn0Xgv2JU4Mc5Kp3ha-2" target="EPGn0Xgv2JU4Mc5Kp3ha-7" edge="1">
          <mxGeometry relative="1" as="geometry" />
        </mxCell>
        <mxCell id="EPGn0Xgv2JU4Mc5Kp3ha-16" value="Collectd" style="rounded=1;whiteSpace=wrap;html=1;container=0;verticalAlign=top;fontSize=16;spacingTop=5;spacing=0;" parent="1" vertex="1">
          <mxGeometry x="-715" y="465" width="190" height="120" as="geometry" />
        </mxCell>
        <mxCell id="EPGn0Xgv2JU4Mc5Kp3ha-17" value="Collect data" style="rounded=0;fillColor=#1ba1e2;fontColor=light-dark(#FFFFFF,#FBFBFB);strokeColor=#006EAF;labelBackgroundColor=none;labelBorderColor=none;textShadow=0;whiteSpace=wrap;html=1;container=0;" parent="1" vertex="1">
          <mxGeometry x="-695.8399999999999" y="505" width="151.68" height="60" as="geometry" />
        </mxCell>
        <mxCell id="EPGn0Xgv2JU4Mc5Kp3ha-19" value="&lt;div&gt;Metrics management&lt;/div&gt;" style="rounded=0;fillColor=#1ba1e2;fontColor=light-dark(#FFFFFF,#FBFBFB);strokeColor=#006EAF;labelBackgroundColor=none;labelBorderColor=none;textShadow=0;whiteSpace=wrap;html=1;" parent="1" vertex="1">
          <mxGeometry x="-610.0033333333333" y="57.829999999999984" width="150" height="60" as="geometry" />
        </mxCell>
        <mxCell id="EPGn0Xgv2JU4Mc5Kp3ha-21" value="&lt;div&gt;&lt;span style=&quot;color: light-dark(rgb(0, 0, 0), rgb(255, 255, 255));&quot;&gt;Storage Time-Series&lt;/span&gt;&lt;/div&gt;" style="rounded=0;fillColor=#1ba1e2;fontColor=light-dark(#FFFFFF,#FBFBFB);strokeColor=#006EAF;labelBackgroundColor=none;labelBorderColor=none;textShadow=0;whiteSpace=wrap;html=1;" parent="1" vertex="1">
          <mxGeometry x="-780" y="57.829999999999984" width="150" height="60" as="geometry" />
        </mxCell>
      </root>
    </mxGraphModel>
  </diagram>
</mxfile>
